<svg id="Layer_1" data-name="Layer 1" xmlns="http://www.w3.org/2000/svg" viewBox="0 0 32 40"><defs><style>.cls-1{fill:#3b5998}.cls-2{fill:none;stroke:#3b5998;stroke-miterlimit:10;stroke-width:2px}</style></defs><title>FB_Lock_Icons</title><path class="cls-1" d="M44 91v23H16V91h28m2-2H14v27h32V89z" transform="translate(-14 -76)"/><path class="cls-1" d="M30 97a3 3 0 0 1 1.34 5.67l-.78.39.28.82L32.6 109h-5.2l1.75-5.12.28-.82-.78-.39A3 3 0 0 1 30 97m0-1a4 4 0 0 0-1.79 7.56L26 110h8l-2.21-6.44A4 4 0 0 0 30 96z" transform="translate(-14 -76)"/><path class="cls-2" d="M30 77a10 10 0 0 0-10 10v3h20v-3a10 10 0 0 0-10-10z" transform="translate(-14 -76)"/></svg>